<svg id="Layer_1" data-name="Layer 1" xmlns="http://www.w3.org/2000/svg" viewBox="0 0 234 42.8"><defs><style>.cls-1{fill:#000;}</style></defs><title>PeelRegion_Logo_2023</title><path class="cls-1" d="M52.7,15.3h9.7c5.4,0,9.9,1.8,9.9,8s-4.2,8.1-9.6,8.1H58.5V41.7H52.8V15.3Zm5.7,11.1h3.8c2,0,4-.7,4-3.2,0-2.7-2.7-3.1-4.9-3.1H58.4Z" transform="translate(-7 -7.7)"/><path class="cls-1" d="M89.5,38.5A9.67,9.67,0,0,1,82,42.1c-5.5,0-9.9-3.7-9.9-9.5s4.4-9.5,9.9-9.5c5.2,0,8.4,3.7,8.4,9.5v1.8H77.5a4.12,4.12,0,0,0,4.2,3.5,4.54,4.54,0,0,0,3.9-2.2Zm-4.7-8a3.31,3.31,0,0,0-3.4-3.4,3.7,3.7,0,0,0-3.9,3.4Z" transform="translate(-7 -7.7)"/><path class="cls-1" d="M109.8,38.5a9.67,9.67,0,0,1-7.5,3.6c-5.5,0-9.9-3.7-9.9-9.5s4.4-9.5,9.9-9.5c5.2,0,8.4,3.7,8.4,9.5v1.8H97.9a4.12,4.12,0,0,0,4.2,3.5,4.54,4.54,0,0,0,3.9-2.2Zm-4.6-8a3.31,3.31,0,0,0-3.4-3.4,3.7,3.7,0,0,0-3.9,3.4Z" transform="translate(-7 -7.7)"/><path class="cls-1" d="M113.1,15.3h5.5V41.7h-5.5Z" transform="translate(-7 -7.7)"/><path class="cls-1" d="M130.7,15.3h10.1c5.3,0,9.8,1.9,9.8,8,0,3.7-2,6.6-5.6,7.2l6.6,11.1h-6.9l-5.4-10.5h-2.8V41.6h-5.7V15.3Zm5.8,10.9h3.4c2.1,0,4.8-.1,4.8-2.9,0-2.6-2.4-3.1-4.5-3.1h-3.8v6Z" transform="translate(-7 -7.7)"/><path class="cls-1" d="M168.6,38.5a9.67,9.67,0,0,1-7.5,3.6c-5.5,0-9.9-3.7-9.9-9.5s4.4-9.5,9.9-9.5c5.2,0,8.4,3.7,8.4,9.5v1.8H156.7a4.12,4.12,0,0,0,4.2,3.5,4.54,4.54,0,0,0,3.9-2.2Zm-4.7-8a3.31,3.31,0,0,0-3.4-3.4,3.7,3.7,0,0,0-3.9,3.4Z" transform="translate(-7 -7.7)"/><path class="cls-1" d="M196.6,14.6a3.2,3.2,0,1,1-3.2,3.2A3.29,3.29,0,0,1,196.6,14.6Zm-2.7,8.9h5.5V41.6h-5.5Z" transform="translate(-7 -7.7)"/><path class="cls-1" d="M211.6,23.1c5.5,0,9.9,3.7,9.9,9.5s-4.4,9.5-9.9,9.5-9.9-3.7-9.9-9.5S206.1,23.1,211.6,23.1Zm0,14.1c2.8,0,4.4-1.9,4.4-4.6a4.25,4.25,0,0,0-4.4-4.6c-2.8,0-4.4,1.9-4.4,4.6S208.8,37.2,211.6,37.2Z" transform="translate(-7 -7.7)"/><path class="cls-1" d="M223.8,23.5h5.3V26h.1a5.71,5.71,0,0,1,5.2-2.9c5.6,0,6.6,3.7,6.6,8.6v10h-5.5V32.8c0-2.1,0-4.8-2.9-4.8s-3.3,2.3-3.3,4.6v9h-5.5V23.5Z" transform="translate(-7 -7.7)"/><path class="cls-1" d="M39.2,26.3H21.1a2.13,2.13,0,0,0-1.7,2V49.6a.32.32,0,0,0,.3.3H23a.32.32,0,0,0,.3-.3v-14a1.11,1.11,0,0,1,1.1-1.1h4.8a12.19,12.19,0,0,0,10.1-7.7v-.3c.1-.2.1-.2-.1-.2" transform="translate(-7 -7.7)"/><path class="cls-1" d="M40.1,17.3c0-.1-.1-.1-.2-.1H17a3.58,3.58,0,0,0-2.5,1.1,3.69,3.69,0,0,0-1,2.4V49.6a.32.32,0,0,0,.3.3h3.4a.32.32,0,0,0,.3-.3V28.4a4.06,4.06,0,0,1,4.1-4.1H40a.22.22,0,0,0,.2-.2h0a15.44,15.44,0,0,0,.4-3,17.26,17.26,0,0,0-.5-3.8h0" transform="translate(-7 -7.7)"/><path class="cls-1" d="M38.9,15.3c.1,0,.2-.1.2-.3v-.1A12.42,12.42,0,0,0,28.3,7.7H12a5,5,0,0,0-5,5.1V49.6a.32.32,0,0,0,.3.3h3.9a.32.32,0,0,0,.3-.3V20.9A5.13,5.13,0,0,1,13.1,17a5.35,5.35,0,0,1,4-1.6l21.8-.1Z" transform="translate(-7 -7.7)"/><path class="cls-1" d="M190.8,40.2c0,6.7-3.4,10.3-10.3,10.3a14.4,14.4,0,0,1-9-2.6l3.1-4.6a9,9,0,0,0,5.8,2.3,4.51,4.51,0,0,0,4.9-4.7V39.2h-.1a6.46,6.46,0,0,1-5,2.4c-5.3,0-8.8-3.8-8.8-9.2,0-4.7,3.1-9.3,8.2-9.3a7.23,7.23,0,0,1,6.1,2.8h.1V23.5h5.1V40.2Zm-9.5-3.4a4.4,4.4,0,1,0-4.4-4.4A4.44,4.44,0,0,0,181.3,36.8Z" transform="translate(-7 -7.7)"/></svg>