<?xml version="1.0" encoding="utf-8"?>
<!-- Generator: Adobe Illustrator 15.1.1, SVG Export Plug-In . SVG Version: 6.00 Build 0)  -->
<!DOCTYPE svg PUBLIC "-//W3C//DTD SVG 1.1//EN" "http://www.w3.org/Graphics/SVG/1.1/DTD/svg11.dtd">
<svg version="1.1" id="Layer_1" xmlns="http://www.w3.org/2000/svg" xmlns:xlink="http://www.w3.org/1999/xlink" x="0px" y="0px"
	 width="20px" height="20px" viewBox="0 0 20 20" enable-background="new 0 0 20 20" xml:space="preserve">
<circle fill-rule="evenodd" clip-rule="evenodd" fill="#167076" cx="10" cy="10" r="10"/>
<path fill-rule="evenodd" clip-rule="evenodd" fill="#FFFFFF" d="M8.935,2.002C8.167,2.363,7.469,3.143,7.388,4.206
	c-0.183,2.371,2.357,3.749,4.219,2.531c1.037-0.678,1.642-2.393,0.773-3.75c-0.401-0.629-1.36-1.331-2.625-1.196
	C9.431,1.826,9.175,1.889,8.935,2.002z"/>
<path fill-rule="evenodd" clip-rule="evenodd" fill="#FFFFFF" d="M11.513,16.112c0.096,0.519,0.604,0.771,1.172,0.773
	c1.121,0.007,1.875-0.68,2.438-1.242c0.582-0.581,1.243-1.261,1.243-2.461c0-1.045-0.498-1.819-0.938-2.602
	c-0.435-0.773-0.896-1.638-1.454-2.109c-0.321-0.271-0.807-0.499-1.406-0.539c-0.72-0.048-1.514,0-2.296,0
	c-0.772,0-1.565-0.057-2.297,0C6.18,8.072,5.57,9.794,4.879,11.167c-0.444,0.883-0.98,1.992-1.055,3.024
	c-0.082,1.139,0.464,2.103,1.031,2.648c0.667,0.643,1.93,1.152,3.024,1.336c1.276,0.216,2.858-0.002,3.164-1.008
	c0.271-0.891-0.396-1.395-1.102-1.453c-0.752-0.063-1.478,0.003-2.156-0.141c-0.309-0.065-0.63-0.154-0.891-0.258
	c-0.257-0.102-0.562-0.225-0.68-0.469c0.308-0.127,0.78-0.105,1.195-0.188c0.312-0.061,0.881-0.187,0.914-0.469
	c0.013-0.112-0.182-0.431-0.257-0.609c-0.205-0.484-0.471-1.273,0-1.617c0.758-0.555,1.216,0.507,1.5,0.961
	c0.575,0.921,1.352,1.834,2.884,1.617C12.087,15.039,11.355,15.251,11.513,16.112z"/>
<path fill-rule="evenodd" clip-rule="evenodd" fill="#167076" d="M11.981,10.464c0.665-0.072,1.241,0.208,1.57,0.562
	c0.635,0.68,0.617,1.962-0.047,2.625c-1.176,1.176-3.185,0.305-3.211-1.313c-0.012-0.742,0.403-1.32,0.867-1.617
	C11.368,10.589,11.675,10.497,11.981,10.464z"/>
</svg>

